<?xml version="1.0" standalone="no"?>
<!DOCTYPE svg PUBLIC "-//W3C//DTD SVG 20010904//EN"
 "http://www.w3.org/TR/2001/REC-SVG-20010904/DTD/svg10.dtd">
<svg version="1.0" xmlns="http://www.w3.org/2000/svg"
 width="350.000000pt" height="205.000000pt" viewBox="0 0 350.000000 205.000000"
 preserveAspectRatio="xMidYMid meet">

<g transform="translate(0.000000,205.000000) scale(0.100000,-0.100000)"
fill="#000000" stroke="none">
<path d="M80 1260 l0 -710 130 0 130 0 0 300 c0 175 4 320 11 349 22 104 96
165 201 165 65 1 100 -19 133 -75 19 -32 20 -55 23 -386 l4 -353 130 0 130 0
-4 383 c-5 435 -8 452 -85 537 -63 70 -125 94 -243 95 -82 0 -103 -4 -152 -27
-31 -14 -77 -45 -102 -68 l-46 -43 0 272 0 271 -130 0 -130 0 0 -710z"/>
<path d="M1100 1260 l0 -710 124 0 124 0 4 312 c5 360 11 391 77 451 91 82
229 69 272 -26 17 -39 19 -70 19 -389 l0 -348 131 0 130 0 -3 393 c-3 346 -6
397 -21 438 -27 69 -77 122 -146 153 -136 61 -281 41 -398 -54 l-63 -50 0 270
0 270 -125 0 -125 0 0 -710z"/>
<path d="M2650 1544 c-168 -44 -325 -172 -398 -325 -51 -108 -63 -162 -63
-279 1 -250 130 -454 357 -562 362 -171 799 56 870 452 58 322 -143 634 -461
715 -74 19 -232 19 -305 -1z m62 -392 c7 -7 5 -25 -4 -54 -14 -40 -17 -43 -49
-40 -90 8 -101 -15 -107 -211 l-4 -148 -57 3 -56 3 -3 228 -2 227 55 0 55 0 0
-32 1 -33 22 26 c12 14 31 31 42 38 22 13 92 8 107 -7z m178 -149 c0 -106 4
-166 13 -183 14 -28 50 -40 92 -28 57 15 60 24 65 201 l5 162 58 3 57 3 0
-231 0 -231 -52 3 c-49 3 -53 5 -56 31 l-3 27 -32 -24 c-92 -68 -207 -51 -248
37 -16 36 -19 67 -19 215 l0 172 60 0 60 0 0 -157z"/>
<path d="M80 255 c0 -120 2 -145 15 -145 11 0 15 16 17 68 l3 67 68 3 67 3 0
-71 c0 -56 3 -70 15 -70 13 0 15 23 15 145 0 122 -2 145 -15 145 -12 0 -15
-13 -15 -60 l0 -61 -67 3 -68 3 -3 58 c-2 42 -7 57 -17 57 -13 0 -15 -25 -15
-145z"/>
<path d="M850 355 c0 -43 -1 -44 -23 -34 -57 26 -113 -38 -104 -118 8 -74 63
-112 118 -83 13 7 19 7 19 0 0 -5 5 -10 10 -10 6 0 10 55 10 145 0 122 -2 145
-15 145 -11 0 -15 -12 -15 -45z m1 -109 c11 -40 -11 -100 -37 -104 -53 -8 -79
103 -33 141 19 15 25 16 42 4 12 -8 24 -26 28 -41z"/>
<path d="M940 255 c0 -122 2 -145 15 -145 12 0 15 14 15 70 l0 71 68 -3 67 -3
3 -67 c2 -52 6 -68 17 -68 13 0 15 25 15 145 0 120 -2 145 -15 145 -10 0 -15
-15 -17 -57 l-3 -58 -67 -3 -68 -3 0 61 c0 47 -3 60 -15 60 -13 0 -15 -23 -15
-145z"/>
<path d="M1607 383 c-4 -3 -7 -17 -7 -30 0 -13 -7 -26 -15 -29 -8 -4 -15 -12
-15 -20 0 -8 7 -14 15 -14 12 0 15 -16 15 -84 0 -67 3 -85 16 -90 29 -11 44
-6 44 14 0 11 -7 20 -15 20 -12 0 -15 14 -15 70 0 56 3 70 15 70 8 0 15 7 15
15 0 8 -7 15 -15 15 -10 0 -15 11 -15 35 0 33 -8 43 -23 28z"/>
<path d="M381 319 c-32 -13 -48 -36 -56 -80 -8 -44 14 -103 43 -118 48 -26
122 1 122 44 0 22 -23 18 -38 -5 -16 -27 -57 -26 -76 2 -29 41 -21 48 54 48
78 0 81 4 55 65 -8 21 -25 39 -40 45 -31 12 -33 12 -64 -1z m57 -35 c39 -27
28 -44 -28 -44 -54 0 -61 9 -30 40 24 24 29 24 58 4z"/>
<path d="M585 323 c-26 -7 -55 -33 -55 -50 0 -19 16 -16 49 8 23 17 32 19 50
10 11 -7 21 -20 21 -30 0 -15 -10 -20 -46 -26 -74 -11 -103 -54 -68 -103 17
-25 61 -29 97 -11 16 9 22 9 25 0 2 -6 10 -11 18 -11 11 0 14 17 14 78 0 101
-6 119 -42 131 -17 6 -34 10 -37 10 -3 -1 -15 -4 -26 -6z m65 -132 c0 -29 -29
-53 -59 -49 -36 4 -37 49 -1 59 45 13 60 10 60 -10z"/>
<path d="M1448 315 c-16 -7 -28 -10 -28 -4 0 5 -7 9 -15 9 -12 0 -15 -18 -15
-105 0 -87 3 -105 15 -105 12 0 15 14 15 64 0 36 4 77 10 91 8 22 15 26 42 23
l33 -3 3 -87 c2 -69 6 -88 17 -88 20 0 22 182 3 198 -25 19 -53 22 -80 7z"/>
<path d="M1734 320 c-51 -21 -71 -108 -39 -169 16 -32 33 -41 76 -41 29 0 79
37 79 60 0 18 -35 11 -48 -10 -22 -35 -73 -19 -87 28 -6 21 -4 22 64 22 l71 0
0 29 c0 57 -66 102 -116 81z m58 -32 c8 -7 18 -21 21 -30 6 -16 0 -18 -43 -18
-56 0 -67 17 -28 44 27 19 30 19 50 4z"/>
<path d="M1941 321 c-7 -5 -22 -6 -32 -4 -18 5 -19 -2 -19 -101 0 -88 3 -106
15 -106 12 0 15 15 15 73 0 80 15 115 44 104 21 -8 34 21 15 34 -17 11 -21 11
-38 0z"/>
<path d="M1190 235 c0 -72 3 -88 20 -105 23 -23 51 -25 83 -9 16 9 22 9 25 0
2 -6 8 -11 13 -11 5 0 9 47 9 105 0 87 -3 105 -15 105 -12 0 -15 -15 -15 -73
0 -59 -4 -77 -18 -90 -46 -42 -72 -7 -72 99 0 50 -3 64 -15 64 -12 0 -15 -16
-15 -85z"/>
</g>
</svg>
